#tb 0: 1/7
#media_type 0: video
#codec_id 0: rawvideo
#dimensions 0: 320x240
#sar 0: 1/1
0,          0,          0,        1,   230400, 0x1c012312
0,          1,          1,        1,   230400, 0xf7cf4e81
0,          2,          2,        1,   230400, 0x29a45e1c
0,          3,          3,        1,   230400, 0xe73082a7
0,          4,          4,        1,   230400, 0x7b84c199
0,          5,          5,        1,   230400, 0xcdfd5b52
0,          6,          6,        1,   230400, 0xc035ebb8
0,          7,          7,        1,   230400, 0x8e37afd0
0,          8,          8,        1,   230400, 0x66386f44
0,          9,          9,        1,   230400, 0x17fa6b56
0,         10,         10,        1,   230400, 0x154c5b53
0,         11,         11,        1,   230400, 0xcaff83ab
0,         12,         12,        1,   230400, 0x7c3d935d
0,         13,         13,        1,   230400, 0x8b2a48ef
0,         14,         14,        1,   230400, 0xb56dc39e
0,         15,         15,        1,   230400, 0x2f4522e6
0,         16,         16,        1,   230400, 0x275efedf
0,         17,         17,        1,   230400, 0x7917108e
0,         18,         18,        1,   230400, 0x3f631971
0,         19,         19,        1,   230400, 0xd70bb265
0,         20,         20,        1,   230400, 0xb918d1e3
0,         21,         21,        1,   230400, 0xce8d0032
0,         22,         22,        1,   230400, 0xbbc3bd32
0,         23,         23,        1,   230400, 0x42103583
0,         24,         24,        1,   230400, 0x4be88f56
0,         25,         25,        1,   230400, 0xd32610ea
0,         26,         26,        1,   230400, 0xcae0a12b
0,         27,         27,        1,   230400, 0x4256bdf3
0,         28,         28,        1,   230400, 0x76b59faf
0,         29,         29,        1,   230400, 0x6cbf7c06
0,         30,         30,        1,   230400, 0x0625b097
0,         31,         31,        1,   230400, 0x867c78c3
0,         32,         32,        1,   230400, 0x767cc08b
0,         33,         33,        1,   230400, 0x097980b0
0,         34,         34,        1,   230400, 0xba182417
0,         35,         35,        1,   230400, 0x08f62b8b
0,         36,         36,        1,   230400, 0x8fc5e64c
0,         37,         37,        1,   230400, 0xed020fad
0,         38,         38,        1,   230400, 0x9b97066b
0,         39,         39,        1,   230400, 0x1d0b31ff
0,         40,         40,        1,   230400, 0x6915912f
0,         41,         41,        1,   230400, 0xb7e6358e
0,         42,         42,        1,   230400, 0x7a3aa13b
0,         43,         43,        1,   230400, 0x7317e56a
0,         44,         44,        1,   230400, 0xf1e1c7f9
0,         45,         45,        1,   230400, 0xb1d5d5e1
0,         46,         46,        1,   230400, 0x0bad1208
0,         47,         47,        1,   230400, 0x2f71275a
0,         48,         48,        1,   230400, 0x4d79679d
0,         49,         49,        1,   230400, 0xfa52be03
0,         50,         50,        1,   230400, 0x17d1d67a
0,         51,         51,        1,   230400, 0x15844f5b
0,         52,         52,        1,   230400, 0xd19466c3
0,         53,         53,        1,   230400, 0xeb80cd8a
0,         54,         54,        1,   230400, 0x9beee240
0,         55,         55,        1,   230400, 0x677a13b3
0,         56,         56,        1,   230400, 0x43abe88f
0,         57,         57,        1,   230400, 0xa42aafc1
0,         58,         58,        1,   230400, 0x0a78c290
0,         59,         59,        1,   230400, 0x3806e07d
0,         60,         60,        1,   230400, 0xaeef5d61
0,         61,         61,        1,   230400, 0x0763c77f
0,         62,         62,        1,   230400, 0xccc17ab1
0,         63,         63,        1,   230400, 0x9a844893
0,         64,         64,        1,   230400, 0x8f962741
0,         65,         65,        1,   230400, 0xe3022980
0,         66,         66,        1,   230400, 0x896130af
0,         67,         67,        1,   230400, 0xdf6675fa
0,         68,         68,        1,   230400, 0xa20c8f9e
0,         69,         69,        1,   230400, 0x3e402c75
